<svg width="76" height="76" viewBox="0 0 76 76" fill="none" xmlns="http://www.w3.org/2000/svg">
<g clip-path="url(#clip0_1514_1680)">
<path d="M76 38C76 17.0133 58.9867 0 38 0C17.0133 0 0 17.0133 0 38C0 56.9668 13.8961 72.6878 32.0625 75.5384V48.9844H22.4141V38H32.0625V29.6281C32.0625 20.1044 37.7358 14.8438 46.4158 14.8438C50.5733 14.8438 54.9219 15.5859 54.9219 15.5859V24.9375H50.1303C45.4097 24.9375 43.9375 27.8668 43.9375 30.872V38H54.4766L52.7918 48.9844H43.9375V75.5384C62.1039 72.6878 76 56.967 76 38Z" fill="#1877F2"/>
<path d="M52.7918 48.9844L54.4766 38H43.9375V30.872C43.9375 27.8665 45.4097 24.9375 50.1303 24.9375H54.9219V15.5859C54.9219 15.5859 50.5733 14.8438 46.4155 14.8438C37.7358 14.8438 32.0625 20.1044 32.0625 29.6281V38H22.4141V48.9844H32.0625V75.5384C34.0267 75.8462 36.0118 76.0005 38 76C39.9882 76.0006 41.9733 75.8462 43.9375 75.5384V48.9844H52.7918Z" fill="white"/>
</g>
<defs>
<clipPath id="clip0_1514_1680">
<rect width="76" height="76" fill="white"/>
</clipPath>
</defs>
</svg>
