<svg width="78" height="77" viewBox="0 0 78 77" fill="none" xmlns="http://www.w3.org/2000/svg">
<path d="M39 0C17.4525 0 0 17.4525 0 39C0 56.2575 11.1637 70.8338 26.6662 76.0013C28.6162 76.3425 29.3475 75.1725 29.3475 74.1488C29.3475 73.2225 29.2988 70.1513 29.2988 66.885C19.5 68.6888 16.965 64.4962 16.185 62.3025C15.7462 61.1812 13.845 57.72 12.1875 56.7937C10.8225 56.0625 8.8725 54.2587 12.1388 54.21C15.21 54.1612 17.4038 57.0375 18.135 58.2075C21.645 64.1062 27.2513 62.4488 29.4938 61.425C29.835 58.89 30.8587 57.1837 31.98 56.2087C23.3025 55.2337 14.235 51.87 14.235 36.9525C14.235 32.7112 15.7463 29.2012 18.2325 26.4712C17.8425 25.4962 16.4775 21.4987 18.6225 16.1362C18.6225 16.1362 21.8888 15.1125 29.3475 20.1338C32.4675 19.2563 35.7825 18.8175 39.0975 18.8175C42.4125 18.8175 45.7275 19.2563 48.8475 20.1338C56.3063 15.0638 59.5725 16.1362 59.5725 16.1362C61.7175 21.4987 60.3525 25.4962 59.9625 26.4712C62.4488 29.2012 63.96 32.6625 63.96 36.9525C63.96 51.9187 54.8438 55.2337 46.1663 56.2087C47.58 57.4275 48.7988 59.7675 48.7988 63.4238C48.7988 68.64 48.75 72.8325 48.75 74.1488C48.75 75.1725 49.4813 76.3913 51.4313 76.0013C59.1747 73.3895 65.9035 68.4141 70.67 61.7761C75.4364 55.1381 78.0001 47.172 78 39C78 17.4525 60.5475 0 39 0Z" fill="black"/>
</svg>
