<svg width="76" height="76" viewBox="0 0 76 76" fill="none" xmlns="http://www.w3.org/2000/svg">
<g clip-path="url(#clip0_1514_1675)">
<path d="M75.2609 30.5577H72.2V30.4H38V45.6H59.4757C56.3426 54.4483 47.9237 60.8 38 60.8C25.4087 60.8 15.2 50.5913 15.2 38C15.2 25.4087 25.4087 15.2 38 15.2C43.8121 15.2 49.0998 17.3926 53.1259 20.9741L63.8742 10.2258C57.0874 3.9007 48.0092 0 38 0C17.0145 0 0 17.0145 0 38C0 58.9855 17.0145 76 38 76C58.9855 76 76 58.9855 76 38C76 35.4521 75.7378 32.965 75.2609 30.5577Z" fill="#FFC107"/>
<path d="M4.38086 20.3129L16.8658 29.469C20.244 21.1052 28.4254 15.2 37.9995 15.2C43.8116 15.2 49.0993 17.3926 53.1254 20.9741L63.8737 10.2258C57.0869 3.9007 48.0087 0 37.9995 0C23.4037 0 10.7459 8.2403 4.38086 20.3129Z" fill="#FF3D00"/>
<path d="M38.0004 76C47.8158 76 56.7344 72.2437 63.4775 66.1352L51.7165 56.183C47.7731 59.182 42.9546 60.804 38.0004 60.8C28.1166 60.8 19.7243 54.4977 16.5627 45.7026L4.1709 55.2501C10.4599 67.5564 23.2317 76 38.0004 76Z" fill="#4CAF50"/>
<path d="M75.2609 30.5576H72.2V30.3999H38V45.5999H59.4757C57.977 49.8111 55.2774 53.4909 51.7104 56.1848L51.7161 56.181L63.4771 66.1332C62.6449 66.8894 76 56.9999 76 37.9999C76 35.452 75.7378 32.9649 75.2609 30.5576Z" fill="#1976D2"/>
</g>
<defs>
<clipPath id="clip0_1514_1675">
<rect width="76" height="76" fill="white"/>
</clipPath>
</defs>
</svg>
